<?xml version="1.0" encoding="utf-8"?>
<!-- Generator: Adobe Illustrator 17.1.0, SVG Export Plug-In . SVG Version: 6.00 Build 0)  -->
<!DOCTYPE svg PUBLIC "-//W3C//DTD SVG 1.1//EN" "http://www.w3.org/Graphics/SVG/1.1/DTD/svg11.dtd">
<svg version="1.1" id="Layer_1" xmlns="http://www.w3.org/2000/svg" xmlns:xlink="http://www.w3.org/1999/xlink" x="0px" y="0px"
	 viewBox="0 0 389 71" enable-background="new 0 0 389 71" xml:space="preserve">
<title>LOGO@2x</title>
<desc>Created with Sketch.</desc>
<g>
	<g>
		<g>
			<g>
				<g>
					
						<radialGradient id="SVGID_1_" cx="36.6458" cy="34.7325" r="24.203" gradientTransform="matrix(1 0 0 1 -0.7207 2.601006e-04)" gradientUnits="userSpaceOnUse">
						<stop  offset="0" style="stop-color:#FFFFFF"/>
						<stop  offset="0.5234" style="stop-color:#FDFDFD"/>
						<stop  offset="0.7119" style="stop-color:#F6F7F7"/>
						<stop  offset="0.8463" style="stop-color:#EBEBEC"/>
						<stop  offset="0.9541" style="stop-color:#DADBDC"/>
						<stop  offset="1" style="stop-color:#D0D2D3"/>
					</radialGradient>
					<path fill="url(#SVGID_1_)" d="M35.9,58.9c-13.3,0-24.2-10.9-24.2-24.2c0-13.3,10.9-24.2,24.2-24.2c13.3,0,24.2,10.9,24.2,24.2
						C60.1,48.1,49.3,58.9,35.9,58.9z"/>
				</g>
				<g>
					<path fill="#CCCCCC" d="M35.9,58.9c-13.3,0-24.2-10.9-24.2-24.2c0-13.3,10.9-24.2,24.2-24.2c13.3,0,24.2,10.9,24.2,24.2
						C60.1,48.1,49.3,58.9,35.9,58.9z M35.9,10.9C22.8,10.9,12,21.6,12,34.7c0,13.2,10.7,23.9,23.9,23.9c13.2,0,23.9-10.7,23.9-23.9
						C59.8,21.6,49.1,10.9,35.9,10.9z"/>
				</g>
				<path fill="#FFD200" d="M60,34.2c0,0.1-0.4,0.5-0.9,0.7c0,0,0,0,0,0c-0.6,0.3-1.5,0.7-2.6,0.9c-1.1,0.3-2.5,0.6-4,0.8
					c-1.5,0.2-3.2,0.4-5,0.6c0,0,0,0,0,0c-2.3,0.2-3.8,0.3-5.7,0.4c-2,0.1-4,0.1-6.1,0.1c0,0.3,0,0.5,0,0.8c0,1.9,0,3.7,0,5.4
					c0,9.2,0.1,9.2,0.3,14.8c13.3,0,24-10.8,24-24C60,34.7,60,34.4,60,34.2z"/>
				<g>
					<path fill="#231F20" d="M35.6,38.6c0,1.9,0,3.7,0,5.4c3.9,3.7,3.9,3.7,5.5,5.3c0.4-3.1,0.7-6.7,0.7-10.7c0-0.3,0-0.5,0-0.8
						c-2.4,0.1-4,0.1-6.1,0.1C35.6,38,35.6,38.3,35.6,38.6z"/>
					<path fill="#231F20" d="M44.4,53.3c-0.8-1.4-1.6-2.3-3.3-4.1c-0.8,5.9-2.3,9.5-4.1,9.5c0.2,0,0.4,0,0.5,0c0.2,0,0.4,0,0.6,0
						C40.6,58.4,42.8,56.5,44.4,53.3z"/>
					<path fill="#231F20" d="M47.1,43.5c0,0-1.4,7.2-2.7,9.8c0.8,1.5,0.8,2,0.5,3c2.3-1.8,4.3-4.4,5.6-7.8
						C49.6,46.8,49,45.9,47.1,43.5z"/>
					<path fill="#231F20" d="M40.2,58.4c0.5-0.1,0.5-0.1,1.5-0.3l0.6-0.2c1.8-0.6,2.1-0.8,2.6-1.7c-1.6,1.2-3.3,1.9-5.2,2.2
						L40.2,58.4z"/>
					<path fill="#231F20" d="M50.9,52.5c3.5-3.9,5.6-9.5,5.6-15.8c0-0.3,0-0.5,0-0.8c-1.1,0.3-2.5,0.6-4,0.8c0,0.3,0,0.5,0,0.8
						c0,4.1-0.7,7.9-2,11C51.2,50.4,51.2,51.1,50.9,52.5z"/>
					<path fill="#231F20" d="M47.4,37.3c-2.3,0.2-3.8,0.3-5.7,0.4c3.3,3.4,4,4.2,5.4,5.8c0.2-1.7,0.3-3.5,0.3-5.4
						C47.4,37.8,47.4,37.5,47.4,37.3z"/>
				</g>
				<path fill="#231F20" d="M30.7,11.9c1.3-0.5,2.6-1.1,5.2-1.3l0,0C34.1,10.8,32.3,11.3,30.7,11.9"/>
				<g>
					<path fill="#E21933" d="M52,36.7c-1.3-0.2-2.3-2.3-1.7-4.4c-1.8,1.2-3.7-1.3-3.5-3.6c0.2-1.2,1-2.3,2.4-1.8
						c-0.6-2-1.3-3.8-2.1-5.5c-1.2,0.2-2.6,0.3-4.1,0.4c1.3,1.9,0,3.7-1.8,3.5c-1.3-0.2-2.5-1.6-2.2-3.2c-1.1,0.7-3.2,0.4-3.4-1.9
						c-0.1,4.9-0.1,11.1-0.1,17.6c6.4,0.1,13.9-0.6,16.9-1.1c0,0,0,0,0,0C52.3,36.7,52.1,36.7,52,36.7z"/>
				</g>
				<g>
					<path fill="#E21933" d="M20.4,41.5c1.8-0.7,4,2.4,3.2,4.5c-0.4,1-1.3,1.2-2.3,0.6c0.5,1.8,1.2,3.5,2,4.9
						c1.3,0.2,2.7,0.3,4.2,0.4c-1.2-1.5-0.2-2.8,1.4-2.7c1.4,0.1,3.3,1.3,2.9,2.9c1.3-0.6,3.5-0.1,3.7,1.6
						c-0.1-3.6-0.1-8.9-0.1-15.1c0-0.3,0-0.5,0-0.8c-2,0-4.1-0.1-6.1-0.2c-4.3-0.2-7.3-0.4-10.9-1c0,0,0,0,0,0
						C20.4,37.2,20.9,40,20.4,41.5z"/>
				</g>
				<path fill="#E21933" d="M47.3,19.4L47.3,19.4L47.3,19.4C47.3,19.4,47.3,19.4,47.3,19.4L47.3,19.4L47.3,19.4
					c0.3,0,0.5-0.1,0.7-0.1c1.4-0.3,4.5-1,4.5-1.9c0,0,1.2,1.2,2.1,2.9c0.1,0.2,0.2,0.4,0.3,0.6c0.1,0.3,0.2,0.7,0.2,0.8
					c0,0.5-0.4,0.5-0.7,0.4c0,0-0.1,0-0.1,0c-1.2-0.6-1.6-1.7-1.9-2.2c-0.6,0.2-1.7,0.7-2.5,0.8c-0.1,0-0.3,0.1-0.4,0.1
					c1,1.7,2,3.7,2.7,5.6c1.2-1.2,3.1,1.1,3.2,3.3c0.1,1.3-0.5,2.5-1.7,2.1c1,1.8,0.7,4.4-1.2,4.9C52.1,30.9,51.1,25.7,47.3,19.4
					L47.3,19.4L47.3,19.4"/>
				<path fill="#E21933" d="M47.3,19.4L47.3,19.4L47.3,19.4L47.3,19.4L47.3,19.4c-3.1-4.7-5.5-6.4-8.6-7.6c-0.6-0.2-2.7-1.1-2.8-1.1
					l0,0l0,0c0.5,0.8,1.6,1.3,1.9,1.3c-0.1,0.3,0,0.9,1,1.6c0.2,0.1,0.3,0.2,0.5,0.3c1.6,0.8,1.9,0.2,2-0.1c0,0,0,0,0,0
					c0.5,0.4,1.4,1.1,2.4,2.3c0.6,0.7,1.1,1.3,1.6,1.9c-1,0.1-2.2,0.2-3.5,0.3c-0.1-1.5-1.2-2.3-1.9-2.6c-1.5-0.6-2,1.2-1.4,2.5
					c-1.2-0.7-2.6-0.1-2.8,1.8C40.4,20.1,43.7,19.9,47.3,19.4L47.3,19.4L47.3,19.4"/>
				<path fill="#E21933" d="M47.6,15c0,0,0-0.1,0-0.2c0-0.1,0.1-0.1,0.1-0.1s0-0.1,0.1-0.1c0.2-0.1,1-0.2,3,1.2
					c-4.2-3.3-8.7-4.6-12.5-5c-0.5-0.1-1.5-0.1-1.5-0.1c1.2,0.1,2,0.4,2.2,0.5c0.2,0.1,0.3,0.1,0.4,0.2c0,0,0,0,0,0
					c0.2,0,0.5,0.1,0.9,0.2c0.4,0.1,1,0.3,1.5,0.6c0.6,0.3,1.4,0.8,1.4,1.2c-0.1,0.1-0.2,0.1-0.5,0c1.4,1,3.5,2.9,4.7,4.3
					c0.8-0.2,2.1-0.3,2.6-0.5C49.8,17.2,48,15.8,47.6,15z"/>
				<path fill="#E21933" d="M23.1,52.9c-2.1-0.4-3.2-0.7-4-1.1c-0.1-0.1-0.2-0.1-0.2-0.1c0,0-1.2-1.2-2.2-2.5c-0.7-1-1.4-2-1.4-2.1
					c0,0,0.2,0,0.3,0c1.1,0.4,2.8,3.3,2.8,3.3c0.7,0.2,1.5,0.5,2.6,0.7c-1-1.5-1.8-3.2-2.4-5c-1.5,0.8-3.4-3.2-2.8-4.9
					c0.1-0.3,0.5-1.1,1.5-0.3c-0.8-1.8-0.6-4.4,1.3-4.4C18.5,42.4,19.3,47.5,23.1,52.9"/>
				<path fill="#E21933" d="M35.7,54.1c-0.2,0.8-1.4,1.6-3,1c0.8,1,0.1,1.9-1.3,1.7c-1.1-0.2-2.3-1-2.4-1.9
					c-1.3-0.1-2.5-0.2-3.6-0.4c1,1.2,2.1,2.1,3.3,2.8c0.1-0.1,0.4,0,1.1,0.2c0.9,0.3,1.8,0.8,2.7,1.1c0,0-0.2,0-0.2,0
					c-0.7-0.1-0.9-0.1-1.3-0.2c-1.8-0.3-4.9-1.4-8-5.4h0h0l0,0c3.7,0.6,7.4,0.8,12.5,0.9C35.7,53.8,35.7,54,35.7,54.1"/>
				<path fill="#FFD200" d="M35.9,10.7c-12.9,0-23.7,10.5-24,23.6l0,0c0,0,0.1,0.3,0.6,0.6v0v0c0.5,0.3,1.3,0.7,2.2,0.9
					c1.2,0.3,2.5,0.6,3.7,0.8l0,0c3.6,0.6,6.6,0.9,10.9,1c2,0.1,4.1,0.2,6.1,0.2c0-1.2,0-8.2,0-15c0-0.9,0-1.8,0-2.7
					C35.7,15.7,35.8,11.3,35.9,10.7L35.9,10.7z"/>
				<path fill="#231F20" d="M47.4,55.9c-1.4,0.8-1.6,0.8-3.5,1.5c-0.5,0.2-1,0.3-1.5,0.5c3.2-0.9,7.7-4.5,8.5-5.4
					c-0.4,0.9-0.7,1.5-1.6,2.2C49,54.9,47.8,55.6,47.4,55.9z"/>
				<path fill="#231F20" d="M14.8,35.8c-1-0.2-1.7-0.6-2.2-0.9c0.3-8.7,5.1-16.4,12.1-20.6c-1.7,1.5-2.4,2.4-3.2,4.4
					C17.5,23.1,15,29.2,14.8,35.8"/>
				<path fill="#231F20" d="M24.7,14.2c1.8-1.3,2.8-2.2,5.6-2.9c2-0.5,3.7-0.7,5.6-0.7l0,0C31.8,10.9,28,12.2,24.7,14.2"/>
				<path fill="#231F20" d="M23.4,37.2c-1.8-0.2-3.4-0.4-4.9-0.7c0.1-4.4,1-8.5,2.6-12.2c0.6,2.4,1.1,3.7,2.8,6.6
					C23.6,33,23.4,35.1,23.4,37.2"/>
				<path fill="#231F20" d="M35.6,20.1c0,2.6,0,5.4-0.1,7.5c0,2.1,0,3.6,0,3.9c-2.4-2.5-3.6-3.9-5.4-6.1c1.2-7.5,3.3-13.4,5.7-14.7
					l0,0l0,0C35.8,11.4,35.7,15.6,35.6,20.1z"/>
				<g>
					<path fill="#231F20" d="M27.2,19.8c-1.5,3.2-2.6,7-3.3,11.1c1.5,2.2,2.4,3.5,5.3,6.7c0-4.3,0.4-8.5,1-12.2
						C28.5,23,27.9,21.9,27.2,19.8z"/>
				</g>
				<path fill="#231F20" d="M59,35c0,0.3,0,0.5,0,0.8c0,8.5-4.1,15.6-10.6,19.5l-0.2,0.1c3.1-1.9,6.9-5,9.4-10.3
					c2.6-5.2,2.3-10.9,2.3-10.9C59.8,34.4,59.4,34.7,59,35z"/>
				<g>
					<path fill="#231F20" d="M30.7,11.9c-3.5,1.4-6.7,3.7-9.2,6.7c-0.7,2.2-0.7,3.4-0.3,5.7c1.6-3.6,3.7-6.8,6.3-9.2
						C28.2,13.8,28.7,13,30.7,11.9z"/>
				</g>
				<path fill="#231F20" d="M27.2,19.9c-0.4-2-0.5-3,0.2-4.7c2.5-2.3,5.4-4,8.5-4.5C32.5,11.6,29.4,15.1,27.2,19.9"/>
			</g>
			<g>
				<g>
					<path fill="#FFFFFF" d="M9.2,19l-2-1c-0.4-0.2-0.5-0.5-0.3-0.9l0-0.1l-0.3-0.1l-0.9,1.8L6,18.9l0-0.1c0.2-0.4,0.3-0.5,0.5-0.5
						c0.1,0,0.3,0.1,0.6,0.2l1.7,0.8c1.3,0.6,1.1,1.6,0.7,2.4c-0.4,0.7-0.9,1.1-1.5,1.1c-0.3,0-0.6-0.1-0.9-0.2l-2-1
						c-0.4-0.2-0.4-0.3-0.2-0.7l0.1-0.1l-0.3-0.1l-1,2l0.3,0.1l0-0.1c0.2-0.3,0.3-0.4,0.4-0.4c0.1,0,0.2,0,0.3,0.1L7,23.4
						c0.3,0.2,0.6,0.2,1,0.2c0.8,0,1.5-0.5,2-1.5C10.8,20.6,10.1,19.5,9.2,19z"/>
					<path fill="#FFFFFF" d="M11.7,11.3c0-0.1,0.1-0.3,0.3-0.5l0-0.1l-0.2-0.2l-1.3,1.6l0.2,0.2l0-0.1c0.3-0.3,0.4-0.4,0.5-0.4
						c0.1,0,0.2,0.1,0.3,0.2l2.3,2l-5.4,0.3l-0.9,1.1l0.2,0.2l0-0.1c0.2-0.2,0.3-0.3,0.5-0.4l3,2.6c0.2,0.2,0.3,0.4,0,0.8l-0.1,0.1
						l0.2,0.2l1.3-1.6L12.8,17l0,0.1c-0.3,0.3-0.4,0.4-0.5,0.4l0,0c-0.1,0-0.2-0.1-0.4-0.2l-2.5-2.1l6-0.4l0.2-0.2l-3.5-3
						C11.7,11.4,11.7,11.3,11.7,11.3z"/>
					<path fill="#FFFFFF" d="M18,11.8c-0.2,0.2-0.3,0.2-0.4,0.2c-0.1,0-0.2-0.1-0.4-0.3l-2.2-2.7c-0.3-0.4-0.3-0.5,0.1-0.9l0.1,0
						L14.9,8l-1.6,1.4l0.2,0.2l0.1,0c0.2-0.1,0.3-0.2,0.4-0.2c0.1,0,0.2,0.1,0.4,0.2l2.2,2.7c0.3,0.4,0.3,0.5,0,0.8l0,0l0.2,0.2
						l1.6-1.4L18,11.8L18,11.8z"/>
					<path fill="#FFFFFF" d="M21.1,4.3L21.1,4.3L21,4.1l-1.8,1l0.1,0.3l0.1,0c0.3-0.2,0.4-0.2,0.6-0.2c0.1,0,0.1,0,0.2,0.1
						c0,0.1,0.1,0.2,0.1,0.5l0.6,3.4l-3-2.3c-0.1-0.1-0.2-0.2-0.2-0.2c0-0.1,0.2-0.3,0.5-0.5l0.1,0l-0.2-0.3l-2.1,1.2l0.2,0.3l0.1,0
						C16.6,7,16.7,7,16.8,7c0.1,0,0.3,0.1,0.5,0.3l3.8,2.9l0.4-0.3l-0.8-4.7C20.7,4.8,20.8,4.5,21.1,4.3z"/>
					<path fill="#FFFFFF" d="M27.8,5.7L27.8,5.7c0,0.8-0.1,1-0.5,1.2L26,7.3c-0.1,0-0.2,0-0.2,0c-0.1,0-0.2,0-0.3-0.3L25,5.5L26.2,5
						C26.3,5,26.4,5,26.5,5c0.1,0,0.2,0.1,0.4,0.4l0,0.1l0.3-0.1l-0.6-1.6l-0.3,0.1l0,0.1c0.1,0.5,0,0.6-0.2,0.7L24.9,5l-0.6-1.8
						l1.6-0.5c0.1,0,0.1,0,0.2,0c0.1,0,0.3,0.1,0.6,0.6l0,0.1l0.3-0.1l-0.5-1.2l-3.8,1.3l0.1,0.3l0.2-0.1c0.1,0,0.2-0.1,0.3-0.1
						c0.2,0,0.3,0.1,0.4,0.4l1.1,3.3c0.1,0.2,0.1,0.4,0,0.5c-0.1,0.1-0.2,0.2-0.5,0.3L24,8.1l0.1,0.3l4.2-1.5L28,5.6L27.8,5.7z"/>
					<path fill="#FFFFFF" d="M35.6,5.6C35,5.7,34.5,5.5,34,5l-0.7-0.6c-0.4-0.3-0.6-0.5-0.9-0.7c0.6-0.3,0.9-0.9,0.8-1.5
						c-0.1-0.9-1-1.4-2.4-1.2c-0.5,0.1-0.7,0.1-1,0.1c-0.1,0-0.2,0-0.3,0.1c-0.3,0-0.5,0.1-0.7,0.1l-0.1,0l0,0.3l0.2,0
						c0.1,0,0.1,0,0.2,0c0.3,0,0.4,0.1,0.4,0.5l0.4,3.4c0.1,0.5-0.1,0.6-0.5,0.7l-0.2,0l0,0.3l2.4-0.3l0-0.3l-0.3,0
						c-0.1,0-0.1,0-0.2,0c-0.3,0-0.4-0.1-0.5-0.5l-0.2-1.3c0.1,0,0.2,0,0.3,0c0.2,0,0.3,0,0.5-0.1h0c0.1,0.1,0.4,0.3,0.9,0.6L33,5.2
						c0.8,0.6,1.2,0.9,2.7,0.7l0.1,0L35.6,5.6L35.6,5.6z M32.3,2.5c0,0.4,0,0.7-0.2,1c-0.2,0.3-0.6,0.4-1.1,0.5l-0.1,0
						c-0.1,0-0.2,0-0.3,0l-0.3-2.5c0.1,0,0.2,0,0.3,0C31.6,1.3,32.2,1.6,32.3,2.5z"/>
					<path fill="#FFFFFF" d="M38.7,3c-0.6-0.4-1.1-0.8-1.1-1.3c0-0.4,0.4-0.7,0.9-0.6c0.5,0,1,0.4,1.2,1l0,0l0.3,0L39.9,1l-0.2,0
						l0,0c0,0-0.1,0-0.1,0h0c-0.1,0-0.2,0-0.3-0.1c-0.2-0.1-0.4-0.2-0.8-0.2c-0.9-0.1-1.6,0.4-1.6,1.1c-0.1,0.8,0.6,1.3,1.3,1.8
						c0.6,0.4,1.1,0.8,1.1,1.4c0,0.6-0.6,0.8-1.1,0.8c-0.6,0-1.1-0.5-1.2-1.2l0-0.1l-0.3,0L36.7,6l0.2,0l0,0c0,0,0.1-0.1,0.1-0.1h0
						c0,0,0.1,0,0.2,0.1c0.2,0.1,0.6,0.2,0.9,0.2c0.1,0,0.1,0,0.2,0h0c0.9,0,1.6-0.5,1.7-1.3C40,4.1,39.3,3.5,38.7,3z"/>
					<path fill="#FFFFFF" d="M42.1,1.6L42.1,1.6c0.5,0.1,0.6,0.3,0.5,0.6l-0.7,3.4c-0.1,0.4-0.2,0.5-0.4,0.5c-0.1,0-0.1,0-0.2,0
						l-0.1,0l-0.1,0.3l2.1,0.4l0.1-0.3l-0.1,0c-0.3-0.1-0.4-0.1-0.5-0.2c-0.1-0.1-0.1-0.2,0-0.5l0.7-3.4C43.5,2.1,43.6,2,43.8,2
						c0.1,0,0.2,0,0.3,0l0.1,0l0.1-0.3l-2.1-0.5L42.1,1.6z"/>
					<path fill="#FFFFFF" d="M50.5,3.9C50.5,3.9,50.5,3.9,50.5,3.9c-0.1,0-0.1,0-0.2,0l-3.6-1.4c0,0-0.1,0-0.1-0.1c0,0,0,0,0-0.1
						l0-0.1l-0.3-0.1l-0.7,1.3l0.3,0.1l0-0.1c0.3-0.5,0.5-0.6,0.6-0.6c0,0,0.1,0,0.2,0L48,3.4l-1.5,3.7c-0.1,0.3-0.2,0.4-0.4,0.4
						c-0.1,0-0.2,0-0.4-0.1l-0.3-0.1l-0.1,0.3l2.5,1l0.1-0.3l-0.3-0.1C47.4,8,47.2,8,47.2,7.8c0-0.1,0-0.2,0-0.4l1.5-3.7L50,4.2
						c0.2,0.1,0.3,0.3,0.2,1l0,0.1l0.3,0.1L50.8,4L50.5,3.9L50.5,3.9z"/>
					<path fill="#FFFFFF" d="M55.4,7.2L55.4,7.2c0.3,0.2,0.4,0.3,0.4,0.4c0,0.1-0.1,0.2-0.3,0.3l-1.9,0.9l0-2.3
						c0-0.3,0.1-0.3,0.1-0.3c0.1,0,0.2,0.1,0.4,0.2l0.1,0l0.2-0.2l-1.9-1.3l-0.2,0.2l0.1,0c0.4,0.3,0.5,0.5,0.5,1.2L52.7,9L52.1,10
						c-0.2,0.3-0.4,0.4-0.8,0.1L51.1,10L51,10.2l2,1.3l0.2-0.2L53,11.2c-0.2-0.1-0.3-0.2-0.3-0.4c0-0.1,0-0.2,0.1-0.4l0.7-1l2.4-1.1
						c0.2-0.1,0.4-0.2,0.6-0.2c0.2,0,0.4,0.1,0.6,0.2l0.1,0l0.2-0.2L55.5,7L55.4,7.2z"/>
					<path fill="#FFFFFF" d="M63.2,14.2c-0.6-0.8-1.5-1.3-2.4-1.3c-0.6,0-1.2,0.2-1.7,0.6c-1.2,0.9-1.3,2.6-0.3,4
						c0.6,0.8,1.5,1.2,2.4,1.2h0c0.6,0,1.2-0.2,1.7-0.6C64.1,17.3,64.2,15.6,63.2,14.2z M63.3,15.9c-0.1,0.6-0.5,1.3-1.1,1.7
						c-0.5,0.4-1,0.6-1.5,0.6c-0.6,0-1-0.2-1.4-0.7c-0.8-1-0.5-2.5,0.6-3.3c0.4-0.3,1-0.5,1.5-0.5c0.6,0,1.1,0.2,1.4,0.7
						C63.2,14.8,63.3,15.3,63.3,15.9z"/>
					<path fill="#FFFFFF" d="M66,18.6l-0.3,0.1l0,0.1c0.2,0.5,0.1,0.6-0.4,0.8l-2.9,1.4c-0.3,0.1-0.4,0.2-0.5,0.2
						c-0.1,0-0.2-0.1-0.4-0.3l0-0.1l-0.3,0.1l0.9,1.9l0.3-0.1l0-0.1c-0.1-0.3-0.2-0.4-0.1-0.5c0-0.1,0.1-0.2,0.3-0.3l1.5-0.7
						l0.6,1.3c0.1,0.3,0.1,0.5-0.3,0.7l-0.1,0l0.1,0.2l1.4-0.7l-0.1-0.2l-0.1,0c-0.3,0.1-0.5,0.1-0.6-0.2l-0.7-1.4l1.6-0.8l0.6,1.3
						c0.2,0.4,0.1,0.6-0.3,0.8l-0.1,0l0.1,0.3l1-0.5L66,18.6z"/>
				</g>
				<path fill="#FFFFFF" d="M7.5,55.1l2.9-5.4l0,0l-4,2.5c-0.4,0.3-0.3,0.7,0,1.1l-0.2,0.1L5,51.6l0.2-0.1c0.4,0.6,0.6,0.6,1.4,0.1
					l3.4-2.2c0.6-0.4,0.7-0.5,0.4-1l0.1-0.1l0.9,1.3l-2.8,5.1l5.7-1.1l0.9,1.2L15.2,55c-0.3-0.4-0.5-0.5-0.7-0.3l-3.6,3
					c-0.7,0.6-0.7,0.7-0.2,1.3l-0.2,0.1l-1.6-2.2L9,56.8c0.3,0.4,0.7,0.7,1.1,0.3l3.6-3l0,0l-6,1.2L7.5,55.1z"/>
				<path fill="#FFFFFF" d="M17.8,60.8l-1.5-1.1l2.2-1.4L17.8,60.8z M17.7,61.2l-0.6,1.9c0,0.1-0.1,0.3-0.2,0.4
					c-0.2,0.2-0.4,0.2-0.9-0.2l-0.2-0.2l-0.1,0.2l2.3,1.7l0.1-0.2c-0.4-0.3-0.5-0.5-0.4-1.1l1.7-6l-0.7-0.5l-0.1,0.2l-4.6,3
					c-0.8,0.5-1,0.6-1.5,0.2L12.5,61l1.9,1.4l0.1-0.2l-0.1-0.1c-0.5-0.3-0.6-0.6-0.5-0.8c0.1-0.1,0.4-0.3,0.6-0.4l1.5-1L17.7,61.2z"
					/>
				<path fill="#FFFFFF" d="M24.4,61.1c0.2,0,0.3,0.1,0.5,0.2c1.5,0.5,1.7,1.4,1.4,2.3c-0.4,1.2-1.3,1.4-2.4,1
					c-0.2-0.1-0.4-0.1-0.6-0.2L24.4,61.1z M23.2,64.5c0.2,0.1,0.3,0.1,0.5,0.2c0.3,0.1,0.4,0.1,0.7,0.2c0.2,0.2,0.4,0.6,0.7,1.2
					l0.4,0.9c0.6,1.2,0.9,1.7,2.6,2.2l0.1-0.2c-0.7-0.3-1.2-0.9-1.6-1.7l-0.5-1.1c-0.3-0.6-0.5-1-0.8-1.4c0.9,0,1.6-0.4,1.9-1.1
					c0.4-1-0.2-2-2-2.7c-0.6-0.2-0.8-0.3-1.2-0.4c-0.4-0.1-1-0.3-1.3-0.4l-0.1,0.2l0.2,0.1c0.6,0.2,0.7,0.4,0.5,1l-1.5,4.1
					c-0.2,0.7-0.5,0.7-1.1,0.5l-0.2-0.1l-0.1,0.2l2.8,1l0.1-0.2l-0.2-0.1c-0.5-0.2-0.7-0.4-0.5-1L23.2,64.5z"/>
				<path fill="#FFFFFF" d="M35,64.3c0.4-0.5,0.2-0.7-0.5-0.8l0-0.2l2.3,0.2l0,0.2c-0.7,0-1,0.2-1.4,0.7l-2,2.8l-0.1,1.6
					c0,0.6,0.1,0.8,0.8,0.8l0.1,0l0,0.2l-2.9-0.2l0-0.2l0.2,0c0.6,0.1,0.9-0.2,0.9-0.7l0.1-1.5l-1.6-3c-0.4-0.8-0.7-1-1.3-1.1l0-0.2
					l2.8,0.2l0,0.2c-0.8-0.1-0.9,0.1-0.6,0.6l1.4,2.7L35,64.3z"/>
				<path fill="#FFFFFF" d="M43.7,69l-4.6,0.8l0-0.2l0.3-0.1c0.5-0.1,0.6-0.3,0.5-0.8l-0.8-4.6c-0.1-0.5-0.3-0.7-0.9-0.6l-0.1,0
					l0-0.2l3-0.5l0,0.2l-0.4,0.1c-0.7,0.1-0.8,0.2-0.7,0.9l0.8,4.7c0,0.3,0.2,0.4,0.5,0.3l1.5-0.3c0.6-0.1,0.8-0.4,1.2-1.4l0.2,0
					L43.7,69z"/>
				<path fill="#FFFFFF" d="M48.7,63.8L47,64.5l-0.1-2.6L48.7,63.8z M49,64.1l1.4,1.5c0.1,0.1,0.2,0.2,0.3,0.4
					c0.1,0.3-0.1,0.4-0.6,0.6l-0.3,0.1l0.1,0.2l2.6-1.1l-0.1-0.2c-0.5,0.2-0.7,0.2-1.1-0.2l-4.2-4.5l-0.8,0.3l0.2,0.2l0.2,5.5
					c0,1,0,1.1-0.6,1.4l0.1,0.2l2.2-0.9l-0.1-0.2l-0.2,0.1c-0.5,0.2-0.8,0.2-0.9,0c-0.1-0.1-0.1-0.5-0.1-0.7L47,64.9L49,64.1z"/>
				<path fill="#FFFFFF" d="M60.3,60.1l-7.8-0.9l2.9,3.4c0.5,0.6,0.7,0.6,1.4,0l0.1,0.2L55,64.3l-0.1-0.2l0,0
					c0.5-0.4,0.5-0.7,0.2-1.1l-3.3-4c-0.3,0-0.6,0.1-0.8,0.4l-0.1-0.2l1.3-1l7,0.8l-2.6-3.2c-0.4-0.5-0.6-0.5-1.3,0.1l-0.1-0.2
					l1.9-1.6l0.1,0.2c-0.6,0.5-0.6,0.7-0.4,1l3.7,4.5L60.3,60.1z"/>
				<path fill="#FFFFFF" d="M58.7,52c0.1-0.1,0.2-0.4,0.4-0.7c0.8-1.2,1.5-1.6,2.2-1.8c0.9-0.2,1.7,0.1,2.3,0.5
					c0.9,0.6,1.3,1.4,1.4,1.9c0.2,0.9,0,1.5-0.7,2.7c-0.4,0.7-0.6,0.6-0.9,0.4L58.7,52z M62.8,55.7c0.5,0.3,0.5,0.6,0.2,1.1
					l-0.1,0.2l0.2,0.1l1.8-2.8c1.4-2.2,0.5-4.3-0.8-5.1c-1.4-0.9-3.3-0.7-4.8,1.6c-0.3,0.5-0.6,1-0.9,1.5c-0.3,0.5-0.6,0.9-0.7,1.3
					l0.2,0.1l0.1-0.2c0.3-0.5,0.6-0.6,1.1-0.2L62.8,55.7z"/>
				<path fill="#FFFFFF" d="M2.5,33v4.5c0,0.2,0,0.3,0.3,0.3h0.4v0.1H1.2v-0.1h0.4c0.2,0,0.3-0.1,0.3-0.3v-3.8
					c-0.2,0.2-0.7,0.5-1,0.6l-0.1-0.1C1.4,33.8,2,33.2,2.2,33H2.5z"/>
				<path fill="#FFFFFF" d="M6.9,36.8c0,0.6-0.4,1.1-1,1.1c-0.6,0-1-0.5-1-1.1c0-0.5,0.3-0.9,0.8-1.2C6.6,35.9,6.9,36.3,6.9,36.8z
					 M7.3,34.1c0-0.6-0.6-1.1-1.4-1.1c-0.8,0-1.4,0.6-1.4,1.2c0,0.5,0.3,0.9,1.1,1.2c-0.8,0.3-1.1,0.7-1.1,1.3
					c0,0.7,0.7,1.3,1.5,1.3c0.9,0,1.5-0.6,1.5-1.4c0-0.6-0.3-1-1.2-1.4C6.9,34.9,7.3,34.6,7.3,34.1z M6.8,34.1
					c0,0.4-0.2,0.8-0.6,1.1c-1-0.4-1.2-0.7-1.2-1.2c0-0.5,0.4-0.9,0.9-0.9C6.4,33.1,6.8,33.5,6.8,34.1z"/>
				<path fill="#FFFFFF" d="M64.5,33.5h1.8c0.1,0,0.2,0,0.2-0.1h0.1L66.6,34h-1.9l-0.1,1.4c0.2-0.1,0.5-0.2,0.8-0.2
					c0.9,0,1.6,0.7,1.6,1.6c0,0.9-0.8,1.6-1.8,1.6c-0.6,0-1.1-0.2-1.1-0.5c0-0.1,0.1-0.2,0.3-0.2c0.4,0,0.6,0.5,1,0.5
					c0.6,0,1.1-0.6,1.1-1.3c0-0.7-0.5-1.2-1.1-1.2c-0.3,0-0.6,0.1-0.8,0.3L64.4,36L64.5,33.5z"/>
				<path fill="#FFFFFF" d="M70.3,36.9c0,0.9-0.4,1.4-0.9,1.4c-0.5,0-1-0.4-1-1.7c0-0.3,0-0.4,0-0.5c0.5-0.4,0.8-0.5,1-0.5
					C70,35.6,70.3,36.1,70.3,36.9z M70.4,33.4c-1.6,0.5-2.6,1.6-2.6,3c0,1.2,0.7,2,1.6,2c0.8,0,1.5-0.7,1.5-1.6
					c0-0.8-0.6-1.4-1.4-1.4c-0.4,0-0.7,0.1-1.1,0.4c0.2-1.1,0.8-1.9,2-2.4L70.4,33.4z"/>
			</g>
		</g>
	</g>
	<g>
		<g>
			<g>
				<g>
					<g>
						<path fill="#FFFFFF" d="M88.3,29.6l-5.2-10.9h0l-0.6,9.2c-0.1,1,0.7,1.3,1.6,1.3v0.4h-4.3v-0.4c1.5,0,1.7-0.3,1.8-2.2l0.5-8
							c0.1-1.3,0-1.7-1.2-1.8v-0.4H84l4.9,10.3l4.9-10.3h3v0.4c-1,0.1-1.4,0.1-1.3,0.8l0.7,9.3c0.1,1.9,0.3,1.9,1.8,1.9v0.4h-5.3
							v-0.4c1,0,1.9-0.3,1.8-1.3l-0.6-9.2h0l-5.1,10.9H88.3z"/>
						<path fill="#FFFFFF" d="M104.6,23.9l-1.2,3.2c-0.1,0.4-0.4,1-0.4,1.3c0,0.6,0.5,0.8,1.7,0.8h0.3v0.4h-4.7v-0.4
							c1.3,0,1.6-0.2,2.2-2l3.7-10.2l-0.2-0.5h1.8l4.3,11.3c0.4,1.1,0.8,1.3,1.9,1.3v0.4h-5.6v-0.4h0.5c1.2,0,1.6-0.1,1.6-0.7
							c0-0.3-0.1-0.6-0.2-0.8l-1.4-3.7H104.6z M106.7,18.3l-1.7,4.8h3.5L106.7,18.3z"/>
						<path fill="#FFFFFF" d="M129.4,29.8c-1.5,0-2.8-0.3-4.6-3.1c-0.3-0.4-1.4-2.2-1.7-2.6h-2.7V27c0,1.8,0.1,2.2,2.2,2.2v0.4h-5.8
							v-0.4c2,0,2-0.5,2-2.3v-8.2c0-1-0.3-1.4-2-1.4v-0.4c1.7-0.1,3.5-0.2,5.2-0.2c1.6,0,2.5,0.2,3.4,0.6c0.8,0.4,2,1.3,2,3
							c0,0.6-0.2,2.5-2.7,3.3l2.5,3.8c0.9,1.4,1.6,1.9,2.3,2V29.8z M120.4,23.9h0.8c0.9,0,1.6,0,2.3-0.2c1.4-0.4,1.9-2,1.9-3.2
							c0-0.8-0.3-2.2-1.6-2.9c-1-0.5-2.3-0.4-3.4-0.4V23.9z"/>
						<path fill="#FFFFFF" d="M140.8,18.7c0.7-1.1,0.3-1.5-1-1.5v-0.4h4.6v0.4c-1.4,0.1-2,0.7-2.6,1.6l-3.4,5.7v3.1
							c0,1.1,0.4,1.5,1.6,1.5h0.3v0.4h-5.6v-0.4h0.4c1.3,0,1.6-0.5,1.6-1.5v-2.9l-3.6-5.7c-1-1.6-1.5-1.9-2.8-1.9v-0.4h5.4v0.4
							c-1.6,0-1.7,0.4-1.1,1.3l3.3,5L140.8,18.7z"/>
						<path fill="#FFFFFF" d="M156.5,29.6h-9.1v-0.4h0.7c0.9,0,1.3-0.3,1.3-1.3v-9.1c0-1.1-0.3-1.5-1.6-1.5h-0.3v-0.4h6v0.4h-0.8
							c-1.3,0-1.7,0.1-1.7,1.4v9.4c0,0.6,0.2,0.8,0.8,0.8h3c1.2,0,1.6-0.5,2.9-2.2h0.4L156.5,29.6z"/>
						<path fill="#FFFFFF" d="M164.5,23.9l-1.2,3.2c-0.1,0.4-0.4,1-0.4,1.3c0,0.6,0.5,0.8,1.7,0.8h0.3v0.4h-4.7v-0.4
							c1.3,0,1.6-0.2,2.2-2l3.7-10.2l-0.2-0.5h1.8l4.3,11.3c0.4,1.1,0.8,1.3,1.9,1.3v0.4h-5.6v-0.4h0.5c1.2,0,1.6-0.1,1.6-0.7
							c0-0.3-0.1-0.6-0.2-0.8l-1.4-3.7H164.5z M166.6,18.3l-1.7,4.8h3.5L166.6,18.3z"/>
						<path fill="#FFFFFF" d="M189.5,29.7l-10.6-11.1v8.8c0,1.5,0.3,1.8,2.1,1.8v0.4h-4.7v-0.4h0.1c1.3,0,1.7-0.4,1.7-1.4V17.8
							c-0.5-0.3-1-0.5-1.7-0.5v-0.4h3.2l9.6,10v-8.1c0-1.2-0.4-1.5-2-1.5v-0.4h4.8v0.4c-1.5,0-1.9,0.3-1.9,1.1v11.4H189.5z"/>
						<path fill="#FFFFFF" d="M197.3,18.9c0-1.3-0.3-1.7-1.6-1.7h-0.4v-0.4c0.8,0,1.8-0.1,2.9-0.1c1.1,0,2.4-0.1,3.4-0.1
							c5.4,0,7.8,2.7,7.8,6.1c0,3.1-2.4,6.8-7.6,6.8h-6.5v-0.4h0.3c1.1,0,1.6-0.3,1.6-1.5V18.9z M199,28.1c0,0.8,0.1,1.1,1.7,1.1
							c2.7,0,3.9-0.4,5.2-1.7c0.8-0.7,1.7-2.3,1.7-4.4c0-1.5-0.4-3.2-1.6-4.4c-0.9-0.9-2.4-1.7-5.3-1.7c-0.8,0-1.4,0.1-1.6,0.1V28.1
							z"/>
						<path fill="#FFFFFF" d="M99.2,56.8c-2.3,0-4.2-0.4-7-4.6c-0.4-0.6-2.1-3.3-2.5-3.8h-4.1v4.1c0,2.7,0.2,3.4,3.3,3.4v0.6h-8.8
							v-0.6c2.9,0,2.9-0.8,2.9-3.4V40.1c0-1.5-0.5-2.1-3-2.1v-0.6c2.6-0.2,5.2-0.3,7.8-0.3c2.4,0,3.8,0.3,5.1,0.9
							c1.3,0.6,3.1,2,3.1,4.5c0,0.8-0.3,3.7-4,5l3.7,5.7c1.4,2.1,2.4,2.9,3.4,3.1V56.8z M85.6,47.8h1.2c1.3,0,2.3,0,3.4-0.3
							c2.1-0.6,2.9-3,2.9-4.8c0-1.2-0.4-3.4-2.5-4.4c-1.5-0.7-3.4-0.6-5.1-0.6V47.8z"/>
						<path fill="#FFFFFF" d="M111.1,56.9c-6,0-11.1-3.9-11.1-9.6c0-6.1,4.7-10.4,11.2-10.4c5.8,0,10.8,4,10.8,9.5
							C122.1,52.5,117.1,56.9,111.1,56.9z M110.5,37.6c-5.4,0-7.5,5-7.5,8.7c0,5.7,3.9,9.8,8.8,9.8c5,0,7.4-4.4,7.4-8.8
							C119.2,41.7,115.6,37.6,110.5,37.6z"/>
						<path fill="#FFFFFF" d="M126.8,40.6c0-1.7-0.2-2.7-2.4-2.7h-1.1v-0.6c0.9,0,3-0.2,3.9-0.2c1.7-0.1,4-0.1,4.6-0.1
							c2.7,0,5.1,0.4,6.2,1.2c1.3,0.9,1.9,1.9,1.9,3.4c0,1.7-1.4,3.4-3.5,3.7v0.1c2.9,0.9,4.6,2.7,4.6,5.1c0,2.4-1.7,5.8-6.6,5.8
							h-11.2v-0.6h0.7c2.5,0,3-0.6,3-2.5V40.6z M129.4,45.3h3.3c2.9,0,4.4-1.2,4.4-3.6c0-2.1-1.3-4.1-5.1-4.1
							c-0.7,0-1.9,0.1-2.7,0.1V45.3z M129.4,52.4c0,2.3,0.9,3.2,3.5,3.2c4,0,5.2-2.5,5.2-4.9c0-2.4-1.8-4.8-5.4-4.8h-3.3V52.4z"/>
						<path fill="#FFFFFF" d="M155,56.9c-6,0-11.1-3.9-11.1-9.6c0-6.1,4.7-10.4,11.2-10.4c5.8,0,10.8,4,10.8,9.5
							C165.9,52.5,161,56.9,155,56.9z M154.4,37.6c-5.4,0-7.5,5-7.5,8.7c0,5.7,3.9,9.8,8.8,9.8c5,0,7.4-4.4,7.4-8.8
							C163.1,41.7,159.4,37.6,154.4,37.6z"/>
						<path fill="#FFFFFF" d="M178.9,53.6c0,1.7,0.6,2.2,2.4,2.2h1.1v0.6h-9.7v-0.6h1.1c1.9,0,2.4-0.6,2.4-2.2V38.4h-5.3
							c-1.2,0-1.8,0.7-2.2,3.4h-0.6l0.5-5h0.6c0,0.2,0.2,0.3,0.3,0.4c0.2,0.1,0.4,0.1,0.6,0.1H185c0.4,0,0.9-0.1,1-0.5h0.6l0.5,5
							h-0.6c-0.5-2.7-1-3.4-2.2-3.4h-5.3V53.6z"/>
						<path fill="#FFFFFF" d="M197,56.4h-7.4v-0.6c1.9-0.1,2.3-0.6,2.3-2.6V40.1c0-1.7-0.6-2.1-2.3-2.2v-0.6h7.4v0.6
							c-1.9,0-2.6,0.4-2.6,2.5v13c0,1.8,0.5,2.4,2.6,2.4V56.4z"/>
						<path fill="#FFFFFF" d="M217.4,42.4c-1-2.9-3.6-4.7-7-4.7c-5.1,0-8.3,3.7-8.3,8.9c0,5.5,4,9.6,8.6,9.6c2.4,0,5.4-0.8,7.5-4.5
							h0.6c-0.4,1.4-1.2,3.3-2,4.5c-2-0.3-3.3,0.8-6.9,0.8c-6.2,0-10.7-4.1-10.7-9.8c0-5.9,4.6-10.2,11-10.2c3.9,0,5.5,1.2,6.5,1.2
							c0.3,0,0.5-0.1,0.6-0.2h0.5l0.3,4.4H217.4z"/>
						<path fill="#FFFFFF" d="M222.2,51.7c0.6,2.7,2.8,4.3,5.2,4.3c2.1,0,4.2-1.2,4.2-3.6c0-4.4-9.8-5.8-9.8-11.1
							c0-2.5,2.3-4.4,5.5-4.4c2.6,0,3.1,0.8,4.2,0.8c0.2,0,0.4-0.1,0.6-0.3h0.5l0.5,3.9h-0.5c-0.9-2.2-2.8-3.6-4.9-3.6
							c-2,0-3.4,1.2-3.4,2.9c0,4.4,9.8,5.5,9.8,11.2c0,3-2.7,5.2-6.3,5.2c-1.7,0-3.8-0.8-4.3-0.8c-0.3,0-0.5,0.2-0.6,0.3h-0.5
							l-0.6-4.7H222.2z"/>
						<path fill="#FFFFFF" d="M263.6,42.4c-1-2.9-3.6-4.7-7-4.7c-5.1,0-8.3,3.7-8.3,8.9c0,5.5,4,9.6,8.6,9.6c2.4,0,5.4-0.8,7.5-4.5
							h0.6c-0.4,1.4-1.2,3.3-2,4.5c-2-0.3-3.3,0.8-6.9,0.8c-6.2,0-10.7-4.1-10.7-9.8c0-5.9,4.6-10.2,11-10.2c3.9,0,5.5,1.2,6.5,1.2
							c0.3,0,0.5-0.1,0.6-0.2h0.5l0.3,4.4H263.6z"/>
						<path fill="#FFFFFF" d="M280.4,49.5h-0.6c-0.2-2.2-0.8-2.4-2.1-2.4h-5.2v6.5c0,1.4,0.5,1.7,1.7,1.7h4.7c2.1,0,2.8-0.8,3.6-3.5
							h0.6l-0.5,4.6h-16.3v-0.6h0.9c2.5,0,2.9-0.7,2.9-2.5V40.4c0-1.7-0.4-2.5-2.5-2.5h-0.7v-0.6h14.7l0.2,4.3h-0.6
							c-0.4-2.6-1.2-3.2-2.3-3.2h-6.5V46h5.5c1.1,0,1.6-0.5,1.8-2.3h0.6V49.5z"/>
						<path fill="#FFFFFF" d="M305.4,56.6L289.5,40v13.2c0,2.2,0.5,2.7,3.1,2.7v0.6h-7.1v-0.6h0.1c1.9,0,2.5-0.6,2.5-2.1V38.7
							c-0.7-0.5-1.5-0.7-2.6-0.8v-0.6h4.8l14.4,15.1V40.2c0-1.9-0.6-2.2-3-2.3v-0.6h7.2v0.6c-2.3,0-2.8,0.4-2.8,1.6v17.1H305.4z"/>
						<path fill="#FFFFFF" d="M321.7,53.6c0,1.7,0.6,2.2,2.4,2.2h1.1v0.6h-9.7v-0.6h1.1c1.9,0,2.4-0.6,2.4-2.2V38.4h-5.3
							c-1.2,0-1.8,0.7-2.2,3.4h-0.6l0.5-5h0.6c0,0.2,0.2,0.3,0.3,0.4c0.2,0.1,0.4,0.1,0.6,0.1h14.7c0.4,0,0.9-0.1,1-0.5h0.6l0.5,5
							h-0.6c-0.5-2.7-1-3.4-2.2-3.4h-5.3V53.6z"/>
						<path fill="#FFFFFF" d="M345.5,49.5H345c-0.2-2.2-0.8-2.4-2.1-2.4h-5.2v6.5c0,1.4,0.5,1.7,1.7,1.7h4.7c2.1,0,2.8-0.8,3.6-3.5
							h0.6l-0.5,4.6h-16.3v-0.6h0.9c2.5,0,2.9-0.7,2.9-2.5V40.4c0-1.7-0.4-2.5-2.5-2.5H332v-0.6h14.7l0.2,4.3h-0.6
							c-0.4-2.6-1.2-3.2-2.3-3.2h-6.5V46h5.5c1.1,0,1.6-0.5,1.8-2.3h0.6V49.5z"/>
						<path fill="#FFFFFF" d="M369.5,56.8c-2.3,0-4.2-0.4-7-4.6c-0.4-0.6-2.1-3.3-2.5-3.8h-4.1v4.1c0,2.7,0.2,3.4,3.3,3.4v0.6h-8.8
							v-0.6c2.9,0,2.9-0.8,2.9-3.4V40.1c0-1.5-0.5-2.1-3-2.1v-0.6c2.6-0.2,5.2-0.3,7.8-0.3c2.4,0,3.8,0.3,5.1,0.9
							c1.3,0.6,3.1,2,3.1,4.5c0,0.8-0.3,3.7-4,5l3.7,5.7c1.4,2.1,2.4,2.9,3.4,3.1V56.8z M355.9,47.8h1.2c1.3,0,2.3,0,3.4-0.3
							c2.1-0.6,2.9-3,2.9-4.8c0-1.2-0.4-3.4-2.5-4.4c-1.5-0.7-3.4-0.6-5.1-0.6V47.8z"/>
					</g>
				</g>
			</g>
		</g>
	</g>
</g>
</svg>
